<svg width="569" height="569" viewBox="0 0 569 569" fill="none" xmlns="http://www.w3.org/2000/svg">
<path d="M549.837 324.278L522.744 313.915L523.142 308.769L544.578 304.566L524.07 296.76L524.425 291.65L552.801 285.937L552.427 290.764L529.402 294.764L551.502 302.733L551.108 307.84L528.198 311.889L550.213 319.41L549.837 324.278Z" fill="#F3FFFE"/>
<path d="M543.939 333.101L535.932 331.511L534.06 340.93L530.41 340.205L532.282 330.785L523.922 329.125L521.816 339.722L518.166 338.997L521.16 323.925L548.478 329.352L545.483 344.424L541.833 343.698L543.939 333.101Z" fill="#F3FFFE"/>
<path d="M519.349 348.783L516.821 357.84L513.275 356.85L517.03 343.399L543.817 350.877L542.59 355.271L519.349 348.783Z" fill="#F3FFFE"/>
<path d="M526.186 363.101C528.723 364.085 530.772 365.553 532.333 367.504C533.884 369.479 534.828 371.691 535.165 374.14C535.518 376.624 535.226 379.071 534.29 381.484C533.218 384.244 531.584 386.429 529.386 388.037C527.203 389.679 524.68 390.503 521.817 390.507L523.8 385.396C525.429 385.256 526.81 384.719 527.945 383.786C529.08 382.853 529.951 381.603 530.559 380.036C531.225 378.32 531.433 376.641 531.184 374.999C530.934 373.356 530.237 371.87 529.094 370.539C527.941 369.233 526.407 368.209 524.492 367.465C522.577 366.722 520.754 366.444 519.022 366.63C517.28 366.841 515.751 367.464 514.434 368.498C513.142 369.542 512.163 370.921 511.497 372.637C510.888 374.204 510.688 375.715 510.897 377.169C511.105 378.624 511.763 379.952 512.87 381.154L510.886 386.265C508.776 384.33 507.469 382.02 506.966 379.335C506.453 376.675 506.732 373.965 507.803 371.204C508.749 368.767 510.173 366.758 512.074 365.178C514 363.608 516.201 362.616 518.679 362.204C521.147 361.817 523.65 362.116 526.186 363.101Z" fill="#F3FFFE"/>
<path d="M495.372 397.97C496.605 395.695 498.271 393.882 500.369 392.531C502.477 391.216 504.787 390.51 507.296 390.414C509.817 390.354 512.274 390.973 514.666 392.269C517.058 393.566 518.905 395.281 520.208 397.413C521.497 399.568 522.155 401.882 522.18 404.354C522.217 406.862 521.618 409.253 520.385 411.528C519.14 413.826 517.462 415.633 515.354 416.948C513.256 418.299 510.958 419.011 508.461 419.084C505.964 419.156 503.519 418.544 501.127 417.247C498.735 415.951 496.876 414.23 495.55 412.085C494.248 409.953 493.578 407.633 493.542 405.125C493.516 402.653 494.126 400.268 495.372 397.97ZM498.855 399.858C497.978 401.476 497.56 403.115 497.6 404.776C497.664 406.449 498.186 408.006 499.165 409.447C500.154 410.925 501.552 412.153 503.358 413.131C505.164 414.11 506.944 414.605 508.698 414.615C510.44 414.649 512.018 414.229 513.431 413.357C514.845 412.485 515.99 411.239 516.867 409.621C517.745 408.003 518.163 406.363 518.122 404.703C518.082 403.042 517.578 401.48 516.612 400.015C515.633 398.574 514.241 397.364 512.435 396.386C510.629 395.407 508.843 394.894 507.078 394.848C505.324 394.837 503.728 395.262 502.291 396.122C500.878 396.994 499.732 398.239 498.855 399.858Z" fill="#F3FFFE"/>
<path d="M492.31 453.561L469.82 437.201L472.503 433.512L487.907 444.717L477.494 426.652L479.353 424.096L499.771 428.408L484.367 417.203L487.051 413.514L509.541 429.874L506.646 433.854L483.266 428.921L495.182 449.613L492.31 453.561Z" fill="#F3FFFE"/>
<path d="M481.097 460.413L475.078 454.898L468.59 461.979L465.846 459.464L472.335 452.384L466.051 446.625L458.751 454.591L456.007 452.077L466.389 440.748L486.922 459.564L476.541 470.893L473.797 468.379L481.097 460.413Z" fill="#F3FFFE"/>
<path d="M450.377 494.552L447.964 491.719L453.6 486.919L437.981 468.579L441.454 465.621L457.073 483.961L462.74 479.136L465.152 481.969L450.377 494.552Z" fill="#F3FFFE"/>
<path d="M418.655 482.772C420.796 481.319 423.109 480.476 425.594 480.241C428.071 480.044 430.446 480.48 432.718 481.55C434.984 482.656 436.88 484.336 438.408 486.587C439.935 488.839 440.787 491.211 440.962 493.704C441.115 496.211 440.634 498.567 439.52 500.774C438.398 503.017 436.767 504.865 434.625 506.318C432.462 507.786 430.141 508.618 427.664 508.815C425.18 509.05 422.812 508.625 420.562 507.54C418.311 506.456 416.422 504.787 414.895 502.535C413.367 500.283 412.508 497.9 412.318 495.386C412.143 492.894 412.616 490.526 413.738 488.283C414.852 486.076 416.491 484.239 418.655 482.772ZM420.879 486.05C419.355 487.084 418.23 488.347 417.501 489.84C416.788 491.355 416.535 492.977 416.741 494.707C416.94 496.474 417.616 498.207 418.769 499.907C419.922 501.607 421.275 502.866 422.828 503.682C424.359 504.513 425.953 504.867 427.609 504.742C429.266 504.618 430.856 504.04 432.379 503.006C433.902 501.973 435.028 500.71 435.756 499.217C436.484 497.724 436.756 496.105 436.572 494.36C436.366 492.63 435.686 490.916 434.533 489.216C433.38 487.516 432.031 486.239 430.485 485.385C428.932 484.569 427.32 484.212 425.648 484.314C423.992 484.438 422.402 485.017 420.879 486.05Z" fill="#F3FFFE"/>
<path d="M403.461 524.124L390.845 499.339L394.911 497.27L407.526 522.055L403.461 524.124Z" fill="#F3FFFE"/>
<path d="M380.25 534.516L378.787 531.093L385.595 528.184L376.128 506.033L380.322 504.24L389.789 526.391L396.633 523.466L398.096 526.889L380.25 534.516Z" fill="#F3FFFE"/>
<path d="M345.917 531.032C344.405 531.165 342.977 530.737 341.63 529.747C340.284 528.758 339.395 527.465 338.962 525.869C338.593 524.504 338.618 523.17 339.039 521.868C339.441 520.598 340.224 519.46 341.389 518.453C342.56 517.472 344.034 516.741 345.811 516.26L356.548 513.35L363.823 540.193L353.587 542.967C351.759 543.462 350.105 543.579 348.624 543.316C347.144 543.054 345.926 542.486 344.97 541.612C344.021 540.763 343.373 539.695 343.024 538.408C342.605 536.863 342.668 535.464 343.213 534.211C343.758 532.958 344.659 531.898 345.917 531.032ZM356.363 530.108L350.917 531.584C349.476 531.975 348.443 532.6 347.819 533.46C347.176 534.353 347.023 535.417 347.358 536.653C347.685 537.863 348.352 538.692 349.358 539.138C350.344 539.617 351.558 539.661 353 539.27L358.446 537.794L356.363 530.108ZM347.171 519.747C345.677 520.152 344.603 520.83 343.949 521.781C343.295 522.732 343.142 523.851 343.491 525.139C343.847 526.452 344.58 527.373 345.691 527.901C346.801 528.429 348.103 528.491 349.596 528.086L355.39 526.516L353.119 518.135L347.171 519.747Z" fill="#F3FFFE"/>
<path d="M320.784 521.169C323.343 520.782 325.794 521.018 328.136 521.878C330.456 522.768 332.411 524.185 334 526.13C335.567 528.105 336.555 530.438 336.962 533.129C337.369 535.819 337.114 538.326 336.198 540.651C335.255 542.979 333.805 544.898 331.848 546.408C329.869 547.949 327.6 548.913 325.041 549.3C322.456 549.691 320.004 549.442 317.684 548.552C315.341 547.692 313.388 546.288 311.825 544.339C310.262 542.39 309.277 540.07 308.87 537.38C308.463 534.689 308.716 532.169 309.628 529.818C310.545 527.494 311.992 525.562 313.972 524.021C315.929 522.511 318.2 521.56 320.784 521.169ZM321.377 525.086C319.557 525.361 317.997 526.016 316.696 527.049C315.4 528.108 314.471 529.463 313.912 531.113C313.329 532.793 313.192 534.648 313.499 536.679C313.807 538.71 314.485 540.429 315.534 541.835C316.557 543.245 317.842 544.251 319.391 544.853C320.939 545.455 322.623 545.619 324.443 545.343C326.263 545.068 327.823 544.414 329.124 543.38C330.424 542.347 331.368 541.004 331.954 539.35C332.514 537.701 332.64 535.86 332.333 533.829C332.025 531.798 331.358 530.064 330.331 528.628C329.282 527.222 327.981 526.204 326.429 525.576C324.881 524.974 323.197 524.81 321.377 525.086Z" fill="#F3FFFE"/>
<path d="M290.444 523.846C293.031 523.776 295.434 524.312 297.653 525.453C299.846 526.621 301.612 528.268 302.95 530.394C304.263 532.546 304.956 534.983 305.029 537.703C305.103 540.423 304.542 542.88 303.347 545.074C302.125 547.269 300.451 548.995 298.323 550.254C296.17 551.54 293.799 552.217 291.213 552.287C288.599 552.358 286.196 551.809 284.003 550.641C281.784 549.5 280.018 547.866 278.706 545.74C277.395 543.614 276.702 541.191 276.628 538.471C276.555 535.75 277.115 533.28 278.31 531.06C279.505 528.866 281.179 527.126 283.332 525.84C285.46 524.581 287.831 523.917 290.444 523.846ZM290.551 527.806C288.711 527.856 287.082 528.314 285.664 529.179C284.247 530.072 283.16 531.302 282.402 532.87C281.617 534.466 281.253 536.291 281.309 538.344C281.364 540.397 281.826 542.186 282.695 543.711C283.536 545.236 284.688 546.392 286.151 547.18C287.613 547.968 289.264 548.337 291.105 548.287C292.945 548.237 294.574 547.78 295.991 546.914C297.409 546.049 298.51 544.831 299.295 543.262C300.053 541.694 300.405 539.883 300.349 537.83C300.294 535.776 299.845 533.974 299.002 532.422C298.134 530.897 296.968 529.728 295.505 528.914C294.042 528.126 292.391 527.757 290.551 527.806Z" fill="#F3FFFE"/>
<path d="M256.302 522.653L265.87 536.039L267.021 523.648L271.563 524.069L268.993 551.761L264.45 551.34L265.623 538.709L253.692 550.341L247.994 549.812L261.315 537.063L250.366 522.102L256.302 522.653Z" fill="#F3FFFE"/>
<path d="M238.527 519.559C240.362 519.909 241.953 520.539 243.3 521.447C244.643 522.382 245.621 523.519 246.234 524.859C246.848 526.198 247.005 527.654 246.705 529.226L241.909 528.311C242.03 527.112 241.756 526.055 241.088 525.14C240.395 524.22 239.301 523.618 237.808 523.333C236.261 523.038 234.986 523.175 233.981 523.744C232.972 524.339 232.354 525.226 232.129 526.405C231.954 527.322 232.087 528.121 232.527 528.803C232.942 529.479 233.525 530.052 234.277 530.522C235.003 530.986 236.039 531.537 237.384 532.174C239.076 532.985 240.441 533.734 241.477 534.421C242.483 535.129 243.281 536.068 243.873 537.24C244.464 538.412 244.597 539.85 244.272 541.553C243.972 543.126 243.317 544.426 242.306 545.456C241.295 546.485 240.022 547.179 238.487 547.538C236.952 547.897 235.254 547.899 233.393 547.544C230.746 547.039 228.712 545.959 227.29 544.303C225.836 542.667 225.238 540.679 225.494 538.338L230.447 539.283C230.336 540.294 230.645 541.235 231.375 542.108C232.105 542.98 233.177 543.552 234.592 543.821C235.876 544.066 236.987 543.939 237.924 543.439C238.861 542.938 239.448 542.072 239.682 540.841C239.842 540.002 239.726 539.26 239.333 538.615C238.909 537.991 238.334 537.447 237.608 536.982C236.881 536.518 235.872 535.972 234.579 535.346C232.866 534.503 231.494 533.725 230.462 533.012C229.404 532.294 228.582 531.336 227.995 530.138C227.378 528.961 227.234 527.508 227.564 525.779C227.829 524.39 228.459 523.152 229.454 522.065C230.422 520.974 231.7 520.185 233.286 519.7C234.841 519.236 236.588 519.189 238.527 519.559Z" fill="#F3FFFE"/>
<path d="M199.797 538.594L200.838 535.021L207.945 537.092L214.686 513.965L219.065 515.241L212.325 538.369L219.471 540.451L218.429 544.024L199.797 538.594Z" fill="#F3FFFE"/>
<path d="M192.311 505.638C194.702 506.629 196.678 508.097 198.24 510.043C199.766 512.004 200.708 514.227 201.064 516.713C201.385 519.214 201.025 521.722 199.984 524.236C198.943 526.75 197.43 528.765 195.444 530.282C193.434 531.788 191.202 532.682 188.746 532.965C186.255 533.261 183.815 532.914 181.424 531.924C179.008 530.924 177.037 529.443 175.51 527.483C173.949 525.536 173.002 523.325 172.671 520.849C172.339 518.373 172.694 515.878 173.735 513.364C174.777 510.85 176.295 508.822 178.29 507.281C180.276 505.764 182.514 504.858 185.004 504.561C187.46 504.279 189.896 504.638 192.311 505.638ZM190.795 509.298C189.094 508.594 187.42 508.348 185.773 508.561C184.115 508.799 182.621 509.479 181.289 510.602C179.923 511.74 178.847 513.258 178.061 515.155C177.275 517.053 176.968 518.875 177.14 520.621C177.287 522.357 177.868 523.882 178.882 525.198C179.897 526.513 181.254 527.523 182.955 528.227C184.656 528.932 186.33 529.177 187.977 528.965C189.624 528.752 191.126 528.089 192.482 526.976C193.814 525.853 194.873 524.342 195.659 522.444C196.445 520.546 196.769 518.717 196.632 516.957C196.46 515.211 195.872 513.668 194.868 512.328C193.853 511.013 192.496 510.003 190.795 509.298Z" fill="#F3FFFE"/>
<path d="M163.221 491.53L163.407 504.364L166.449 506.057L171.858 496.336L175.844 498.554L162.322 522.856L153.929 518.187C152.065 517.149 150.673 515.947 149.754 514.581C148.812 513.202 148.331 511.789 148.311 510.343C148.268 508.884 148.622 507.479 149.375 506.127C150.257 504.542 151.527 503.356 153.186 502.569C154.809 501.793 156.706 501.704 158.876 502.301L158.466 488.884L163.221 491.53ZM164.678 509.239L160.273 506.787C158.781 505.957 157.454 505.708 156.293 506.038C155.109 506.356 154.166 507.145 153.466 508.403C152.765 509.662 152.594 510.849 152.95 511.963C153.294 513.101 154.224 514.091 155.739 514.935L160.145 517.386L164.678 509.239Z" fill="#F3FFFE"/>
<path d="M137.452 503.788L142.059 497.049L134.131 491.629L136.231 488.556L144.16 493.976L148.97 486.94L140.05 480.843L142.151 477.77L154.836 486.442L139.118 509.434L126.433 500.762L128.533 497.69L137.452 503.788Z" fill="#F3FFFE"/>
<path d="M85.7559 464.968L110.89 450.488L114.632 454.044L104.367 473.326L123.363 462.341L127.103 465.841L113.631 491.46L110.121 488.124L121.547 467.737L101.419 479.854L97.7064 476.326L109.021 455.998L89.2946 468.331L85.7559 464.968Z" fill="#F3FFFE"/>
<path d="M82.4664 454.6L88.7577 449.399L82.638 441.997L85.5062 439.626L91.6258 447.027L98.1947 441.596L91.3101 433.269L94.1782 430.898L103.97 442.741L82.5051 460.488L72.7136 448.645L75.5817 446.274L82.4664 454.6Z" fill="#F3FFFE"/>
<path d="M85.7471 425.501L80.3271 417.817L83.3355 415.695L91.3848 427.107L68.6578 443.137L66.0286 439.409L85.7471 425.501Z" fill="#F3FFFE"/>
<path d="M70.51 422.035C68.147 423.384 65.7164 424.05 63.2182 424.033C60.7068 423.992 58.394 423.331 56.28 422.05C54.1296 420.759 52.4128 418.99 51.1296 416.743C49.6612 414.171 48.9952 411.526 49.1317 408.806C49.2318 406.076 50.1822 403.598 51.9829 401.372L54.7014 406.132C53.7844 407.485 53.3307 408.896 53.3402 410.366C53.3497 411.835 53.7711 413.299 54.6045 414.759C55.5173 416.357 56.69 417.577 58.1225 418.418C59.555 419.258 61.1481 419.654 62.9019 419.605C64.6424 419.533 66.4045 418.988 68.1883 417.969C69.9721 416.95 71.3374 415.71 72.2842 414.248C73.2178 412.762 73.698 411.182 73.725 409.508C73.7288 407.847 73.2743 406.217 72.3615 404.619C71.5281 403.159 70.4812 402.052 69.2207 401.297C67.9602 400.542 66.5143 400.216 64.883 400.318L62.1645 395.558C64.997 395.138 67.6142 395.579 70.0161 396.88C72.4048 398.158 74.3333 400.083 75.8017 402.654C77.0981 404.925 77.7609 407.296 77.7899 409.767C77.7958 412.252 77.178 414.587 75.9365 416.77C74.6818 418.93 72.873 420.685 70.51 422.035Z" fill="#F3FFFE"/>
<path d="M62.8835 376.227C63.8737 378.618 64.2328 381.053 63.9608 383.534C63.6539 386 62.7473 388.238 61.2409 390.248C59.6996 392.243 57.672 393.761 55.158 394.803C52.644 395.844 50.1489 396.199 47.6728 395.867C45.1864 395.511 42.9752 394.565 41.0392 393.027C39.0683 391.476 37.5878 389.505 36.5976 387.114C35.5972 384.699 35.2504 382.258 35.5573 379.792C35.8293 377.312 36.7237 375.079 38.2403 373.094C39.7569 371.108 41.7722 369.595 44.2862 368.554C46.8001 367.513 49.3075 367.153 51.8084 367.474C54.2846 367.805 56.5081 368.747 58.4789 370.298C60.4149 371.835 61.8831 373.812 62.8835 376.227ZM59.2235 377.743C58.5191 376.042 57.5092 374.685 56.1939 373.67C54.854 372.666 53.3161 372.09 51.5804 371.943C49.8097 371.781 47.9755 372.093 46.0777 372.879C44.1799 373.665 42.6745 374.736 41.5614 376.093C40.4381 377.424 39.7701 378.914 39.5573 380.561C39.3445 382.208 39.5903 383.882 40.2946 385.583C40.999 387.284 42.0089 388.641 43.3242 389.656C44.6395 390.67 46.1701 391.263 47.9161 391.435C49.6519 391.583 51.4686 391.263 53.3665 390.477C55.2643 389.691 56.7871 388.627 57.935 387.286C59.0481 385.929 59.7234 384.423 59.9608 382.765C60.1736 381.118 59.9278 379.444 59.2235 377.743Z" fill="#F3FFFE"/>
<path d="M21.7442 339.23L48.6146 332.058L49.791 336.466L31.3878 341.378L51.9789 344.662L52.7941 347.716L36.589 360.864L54.9923 355.951L56.1688 360.359L29.2984 367.531L28.0291 362.776L46.582 347.718L23.0033 343.947L21.7442 339.23Z" fill="#F3FFFE"/>
<path d="M23.4476 325.976L31.5236 324.785L30.1231 315.284L33.8048 314.741L35.2053 324.242L43.6376 323L42.062 312.311L45.7437 311.768L47.9845 326.97L20.4312 331.031L18.1903 315.83L21.872 315.287L23.4476 325.976Z" fill="#F3FFFE"/>
<path d="M16.3548 281.201L20.0753 281.115L20.2467 288.516L44.3298 287.958L44.4355 292.518L20.3523 293.076L20.5247 300.517L16.8042 300.603L16.3548 281.201Z" fill="#F3FFFE"/>
<path d="M45.4956 263.184C45.2664 265.761 44.457 268.086 43.0674 270.159C41.6537 272.202 39.8139 273.766 37.5481 274.85C35.2581 275.906 32.7579 276.313 30.0475 276.072C27.3371 275.83 24.9613 274.99 22.92 273.549C20.8811 272.083 19.3594 270.22 18.3551 267.961C17.3265 265.673 16.9269 263.241 17.1561 260.663C17.3877 258.059 18.2103 255.735 19.6241 253.692C21.0136 251.619 22.8401 250.054 25.1036 248.997C27.367 247.939 29.8539 247.531 32.5643 247.772C35.2747 248.013 37.6638 248.855 39.7317 250.297C41.773 251.738 43.3079 253.602 44.3365 255.889C45.3408 258.148 45.7272 260.58 45.4956 263.184ZM41.5496 262.833C41.7126 260.999 41.4461 259.328 40.75 257.82C40.0273 256.31 38.9308 255.087 37.4604 254.153C35.9659 253.19 34.1956 252.617 32.1496 252.435C30.1035 252.253 28.2732 252.506 26.6588 253.192C25.0467 253.853 23.7649 254.863 22.8136 256.225C21.8622 257.587 21.305 259.184 21.142 261.018C20.9789 262.851 21.2454 264.522 21.9416 266.03C22.6377 267.538 23.7197 268.773 25.1877 269.734C26.658 270.668 28.4162 271.226 30.4623 271.408C32.5083 271.59 34.3507 271.352 35.9894 270.694C37.6038 270.008 38.9 268.985 39.878 267.625C40.8293 266.264 41.3865 264.666 41.5496 262.833Z" fill="#F3FFFE"/>
<path d="M23.0794 224.909L50.249 230.848L49.2749 235.305L22.1053 229.366L23.0794 224.909Z" fill="#F3FFFE"/>
<path d="M29.7259 200.344L33.2987 201.385L31.2274 208.492L54.3548 215.232L53.0784 219.612L29.951 212.872L27.8685 220.017L24.2956 218.976L29.7259 200.344Z" fill="#F3FFFE"/>
<path d="M53.8178 176.548C54.6691 175.292 55.9034 174.454 57.5207 174.035C59.138 173.616 60.7022 173.743 62.2132 174.416C63.5049 174.991 64.5229 175.853 65.2671 177.002C65.9978 178.115 66.3858 179.441 66.4309 180.98C66.4517 182.508 66.0878 184.112 65.3393 185.794L60.8154 195.957L35.4078 184.647L39.7201 174.959C40.4904 173.229 41.4446 171.873 42.5828 170.89C43.721 169.907 44.9308 169.322 46.2121 169.133C47.469 168.933 48.7068 169.104 49.9254 169.647C51.3877 170.298 52.4327 171.23 53.0604 172.444C53.6881 173.658 53.9406 175.026 53.8178 176.548ZM47.9378 185.231L50.2322 180.077C50.8398 178.712 51.007 177.516 50.734 176.489C50.4475 175.427 49.7194 174.636 48.5495 174.115C47.404 173.605 46.3409 173.599 45.3601 174.097C44.3657 174.56 43.5648 175.474 42.9573 176.838L40.6628 181.993L47.9378 185.231ZM61.7767 184.646C62.4059 183.233 62.5583 181.972 62.2339 180.864C61.9095 179.756 61.138 178.93 59.9194 178.388C58.6764 177.835 57.4995 177.822 56.3887 178.349C55.2778 178.877 54.4078 179.848 53.7786 181.261L51.3376 186.745L59.2706 190.276L61.7767 184.646Z" fill="#F3FFFE"/>
<path d="M77.3585 163.131C76.0423 165.359 74.3111 167.11 72.1649 168.383C70.0092 169.619 67.6755 170.239 65.1638 170.242C62.6426 170.209 60.2106 169.501 57.8678 168.117C55.5249 166.733 53.7422 164.951 52.5194 162.773C51.3102 160.571 50.7384 158.235 50.8038 155.764C50.8599 153.256 51.546 150.888 52.8622 148.66C54.1919 146.409 55.9346 144.666 58.0902 143.429C60.2364 142.157 62.5587 141.53 65.0569 141.549C67.5551 141.569 69.9756 142.271 72.3184 143.655C74.6612 145.039 76.4555 146.827 77.7012 149.019C78.924 151.198 79.5073 153.541 79.4513 156.048C79.3858 158.519 78.6882 160.88 77.3585 163.131ZM73.9476 161.116C74.8838 159.532 75.3623 157.909 75.383 156.248C75.3807 154.573 74.9169 152.998 73.9918 151.522C73.0573 150.009 71.7057 148.731 69.9371 147.686C68.1685 146.641 66.4078 146.081 64.655 146.006C62.9157 145.908 61.3237 146.269 59.879 147.089C58.4342 147.909 57.2437 149.111 56.3075 150.696C55.3713 152.281 54.8928 153.903 54.8721 155.564C54.8514 157.225 55.2969 158.805 56.2085 160.304C57.1336 161.78 58.4805 163.041 60.2491 164.086C62.0177 165.13 63.7831 165.709 65.5453 165.82C67.2981 165.895 68.9084 165.529 70.3761 164.723C71.8209 163.904 73.0114 162.701 73.9476 161.116Z" fill="#F3FFFE"/>
<path d="M94.6878 137.518C93.0977 139.56 91.157 141.074 88.8657 142.063C86.5698 143.013 84.176 143.33 81.6844 143.012C79.1881 142.657 76.8666 141.644 74.7198 139.972C72.5731 138.3 71.0326 136.305 70.0983 133.988C69.1804 131.65 68.9118 129.26 69.2925 126.817C69.6685 124.337 70.6516 122.077 72.2417 120.035C73.8482 117.973 75.7994 116.466 78.0954 115.515C80.3867 114.527 82.7699 114.202 85.2452 114.541C87.7204 114.88 90.0314 115.885 92.1781 117.557C94.3249 119.229 95.8759 121.232 96.8313 123.565C97.7656 125.882 98.0447 128.281 97.6686 130.761C97.2879 133.203 96.2943 135.456 94.6878 137.518ZM91.5624 135.084C92.6935 133.632 93.3755 132.083 93.6082 130.438C93.8199 128.777 93.5613 127.156 92.8324 125.574C92.0989 123.954 90.9218 122.513 89.3012 121.251C87.6806 119.989 86.0059 119.208 84.277 118.91C82.5645 118.591 80.9395 118.745 79.4018 119.373C77.8642 120.002 76.5298 121.042 75.3987 122.494C74.2676 123.946 73.5857 125.495 73.3529 127.14C73.1201 128.784 73.36 130.408 74.0725 132.011C74.8014 133.594 75.9762 135.016 77.5968 136.278C79.2174 137.54 80.8944 138.339 82.6279 138.675C84.3568 138.973 86.0006 138.817 87.5593 138.205C89.0969 137.576 90.4313 136.536 91.5624 135.084Z" fill="#F3FFFE"/>
<path d="M116.43 112.607L100.007 111.597L108.902 120.301L105.711 123.562L85.8329 104.112L89.0232 100.851L98.0902 109.722L96.5793 93.1285L100.581 89.0383L102.083 107.415L120.6 108.345L116.43 112.607Z" fill="#F3FFFE"/>
<path d="M130.066 100.685C128.636 101.885 127.143 102.72 125.587 103.19C124.014 103.64 122.514 103.679 121.089 103.308C119.663 102.937 118.436 102.139 117.407 100.912L121.147 97.7743C122 98.6254 122.992 99.0814 124.123 99.1424C125.274 99.1863 126.432 98.7195 127.597 97.7421C128.803 96.7303 129.503 95.6554 129.697 94.5173C129.874 93.3588 129.577 92.3197 128.805 91.4001C128.205 90.6849 127.502 90.2825 126.695 90.193C125.909 90.0864 125.097 90.1763 124.257 90.4627C123.438 90.7319 122.357 91.1865 121.014 91.8264C119.315 92.6246 117.873 93.2085 116.685 93.578C115.501 93.91 114.268 93.9347 112.986 93.6521C111.704 93.3696 110.506 92.5642 109.391 91.2358C108.363 90.0097 107.769 88.6796 107.61 87.2456C107.452 85.8115 107.718 84.3863 108.41 82.9698C109.102 81.5533 110.174 80.2363 111.625 79.0188C113.689 77.2868 115.812 76.3932 117.994 76.3379C120.18 76.2451 122.099 77.0378 123.751 78.7161L119.889 81.9571C119.176 81.232 118.251 80.8765 117.113 80.8907C115.976 80.9048 114.855 81.3749 113.752 82.3009C112.75 83.1411 112.147 84.0825 111.943 85.125C111.738 86.1675 112.038 87.169 112.844 88.1294C113.393 88.7834 114.042 89.162 114.79 89.2653C115.542 89.3311 116.327 89.2294 117.146 88.9601C117.965 88.6909 119.025 88.2535 120.328 87.6479C122.064 86.8529 123.534 86.2809 124.739 85.9318C125.964 85.5656 127.226 85.5339 128.525 85.8369C129.827 86.1023 131.044 86.9094 132.176 88.2581C133.085 89.3412 133.646 90.6116 133.859 92.0694C134.093 93.5101 133.897 94.9983 133.27 96.534C132.647 98.0323 131.579 99.4158 130.066 100.685Z" fill="#F3FFFE"/>
<path d="M140.157 58.2678L142.268 61.3323L136.172 65.5325L149.84 85.3695L146.083 87.9577L132.415 68.1207L126.286 72.3436L124.175 69.2791L140.157 58.2678Z" fill="#F3FFFE"/>
<path d="M169.278 73.8242C167.003 75.0573 164.618 75.6674 162.123 75.6544C159.639 75.6053 157.319 74.936 155.163 73.6464C153.018 72.3207 151.298 70.4618 150.001 68.0695C148.704 65.6772 148.092 63.2325 148.165 60.7353C148.261 58.2253 148.973 55.9278 150.3 53.8427C151.639 51.7214 153.445 50.0441 155.72 48.811C158.019 47.5652 160.41 46.9668 162.895 47.016C165.39 47.0289 167.704 47.6865 169.836 48.9888C171.968 50.291 173.682 52.1383 174.979 54.5305C176.276 56.9228 176.894 59.3792 176.834 61.8999C176.761 64.3971 176.056 66.7064 174.718 68.8277C173.39 70.9128 171.577 72.5783 169.278 73.8242ZM167.391 70.3413C169.009 69.4642 170.254 68.3188 171.127 66.9053C171.986 65.4683 172.399 63.8789 172.366 62.1372C172.343 60.3594 171.842 58.5675 170.863 56.7616C169.884 54.9557 168.662 53.5696 167.198 52.6034C165.757 51.6245 164.206 51.1147 162.546 51.0741C160.885 51.0336 159.246 51.4519 157.627 52.329C156.009 53.2062 154.764 54.3516 153.891 55.7651C153.019 57.1787 152.588 58.7626 152.598 60.517C152.632 62.2587 153.138 64.0325 154.117 65.8384C155.096 67.6443 156.312 69.0485 157.766 70.0509C159.23 71.0171 160.799 71.5322 162.472 71.5962C164.133 71.6368 165.772 71.2185 167.391 70.3413Z" fill="#F3FFFE"/>
<path d="M198.889 59.8025L188.806 51.8611L185.574 53.1571L189.716 63.482L185.482 65.1802L175.129 39.368L184.042 35.7928C186.023 34.9983 187.833 34.6746 189.473 34.8217C191.138 34.9588 192.538 35.4752 193.673 36.3708C194.833 37.2564 195.701 38.4173 196.277 39.8533C196.952 41.537 197.073 43.2707 196.639 45.0545C196.219 46.8036 195.094 48.333 193.262 49.6425L203.94 57.7766L198.889 59.8025ZM184.219 49.7774L188.898 47.9004C190.483 47.2648 191.513 46.392 191.987 45.2819C192.486 44.1618 192.468 42.9333 191.932 41.5962C191.395 40.2592 190.582 39.3782 189.492 38.9532C188.392 38.5034 187.037 38.6013 185.427 39.2468L180.748 41.1238L184.219 49.7774Z" fill="#F3FFFE"/>
<path d="M206.309 31.7596L208.623 39.5881L217.833 36.8661L218.888 40.435L209.678 43.157L212.094 51.3309L222.455 48.2686L223.51 51.8375L208.774 56.1927L200.88 29.4837L215.616 25.1285L216.671 28.6973L206.309 31.7596Z" fill="#F3FFFE"/>
<path d="M268.844 16.1578L264.194 44.7897L259.074 45.4444L250.609 25.3068L247.126 46.9718L242.05 47.6611L230.699 21.0345L235.502 20.4205L244.09 42.1559L247.41 18.8981L252.49 18.2486L261.103 39.8598L264.001 16.7769L268.844 16.1578Z" fill="#F3FFFE"/>
<path d="M279.042 20.1024L279.105 28.2654L288.709 28.1913L288.738 31.9127L279.134 31.9868L279.2 40.5099L290.004 40.4265L290.033 44.1479L274.667 44.2665L274.452 16.4163L289.818 16.2976L289.846 20.019L279.042 20.1024Z" fill="#F3FFFE"/>
<path d="M299.408 40.9683L308.79 41.6208L308.534 45.2934L294.602 44.3244L296.532 16.5803L301.083 16.8968L299.408 40.9683Z" fill="#F3FFFE"/>
<path d="M311.845 31.2732C312.293 28.5893 313.314 26.285 314.906 24.3602C316.525 22.4399 318.5 21.0657 320.829 20.2376C323.189 19.3877 325.645 19.1758 328.197 19.6022C331.118 20.0901 333.589 21.2466 335.61 23.0718C337.662 24.8751 338.981 27.1781 339.567 29.9808L334.16 29.0775C333.692 27.5117 332.885 26.268 331.741 25.3466C330.596 24.4252 329.195 23.826 327.538 23.5491C325.722 23.2458 324.036 23.3834 322.479 23.9617C320.921 24.54 319.608 25.5242 318.537 26.914C317.493 28.3083 316.801 30.0185 316.463 32.0446C316.124 34.0707 316.222 35.9127 316.757 37.5707C317.318 39.2331 318.238 40.604 319.518 41.6833C320.803 42.7364 322.353 43.4145 324.169 43.7178C325.826 43.9947 327.346 43.8834 328.728 43.384C330.109 42.8845 331.276 41.9705 332.228 40.642L337.636 41.5452C336.17 44.0051 334.174 45.7543 331.647 46.7927C329.147 47.8356 326.437 48.1131 323.516 47.6252C320.937 47.1945 318.681 46.2091 316.748 44.669C314.818 43.1026 313.4 41.1482 312.493 38.8059C311.613 36.468 311.397 33.9571 311.845 31.2732Z" fill="#F3FFFE"/>
<path d="M352.168 54.2114C349.689 53.4685 347.574 52.2082 345.823 50.4303C344.106 48.6345 342.944 46.5178 342.337 44.0803C341.764 41.6249 341.868 39.094 342.649 36.4874C343.43 33.8808 344.732 31.7226 346.553 30.0126C348.4 28.3102 350.531 27.1942 352.945 26.6645C355.393 26.117 357.856 26.2146 360.335 26.9574C362.839 27.7079 364.95 28.981 366.668 30.7768C368.419 32.5547 369.585 34.6586 370.165 37.0884C370.746 39.5183 370.646 42.0365 369.865 44.643C369.084 47.2496 367.779 49.4207 365.95 51.1562C364.128 52.8662 361.994 53.995 359.546 54.5426C357.132 55.0722 354.672 54.9618 352.168 54.2114ZM353.305 50.4165C355.068 50.9449 356.759 51.0198 358.376 50.6411C360.001 50.2369 361.419 49.4086 362.63 48.1561C363.874 46.8858 364.79 45.2668 365.38 43.2991C365.97 41.3314 366.09 39.4878 365.742 37.7682C365.42 36.0563 364.687 34.5975 363.545 33.3918C362.402 32.1861 360.949 31.319 359.186 30.7906C357.423 30.2622 355.733 30.1873 354.115 30.566C352.498 30.9447 351.071 31.7564 349.835 33.0012C348.624 34.2536 347.724 35.8637 347.134 37.8314C346.544 39.7991 346.407 41.6516 346.722 43.3891C347.07 45.1087 347.811 46.5841 348.946 47.8153C350.089 49.0211 351.542 49.8881 353.305 50.4165Z" fill="#F3FFFE"/>
<path d="M407.682 46.0232L396.183 71.3459L392.029 69.4598L399.905 52.1165L384.305 65.9523L381.427 64.6452L381.541 43.7779L373.666 61.1212L369.512 59.2351L381.011 33.9124L385.492 35.9474L385.366 59.8417L403.237 44.0048L407.682 46.0232Z" fill="#F3FFFE"/>
<path d="M416.154 55.2492L411.976 62.2623L420.227 67.1774L418.323 70.3746L410.072 65.4595L405.71 72.782L414.992 78.3115L413.087 81.5087L399.886 73.6445L414.14 49.7173L427.341 57.5815L425.436 60.7787L416.154 55.2492Z" fill="#F3FFFE"/>
<path d="M456.581 78.9451L454.284 81.8728L448.46 77.3025L433.588 96.2534L429.999 93.4372L444.871 74.4863L439.016 69.8913L441.313 66.9637L456.581 78.9451Z" fill="#F3FFFE"/>
<path d="M451.477 112.38C449.628 110.571 448.341 108.472 447.617 106.084C446.931 103.695 446.885 101.281 447.481 98.8411C448.115 96.4007 449.383 94.208 451.286 92.263C453.189 90.318 455.345 89.0117 457.752 88.3441C460.179 87.6951 462.584 87.6972 464.968 88.3503C467.39 89.0031 469.525 90.2343 471.375 92.044C473.244 93.8724 474.521 95.9808 475.208 98.3691C475.932 100.757 475.986 103.162 475.371 105.583C474.756 108.005 473.497 110.188 471.594 112.133C469.691 114.078 467.526 115.393 465.1 116.08C462.693 116.748 460.278 116.755 457.857 116.103C455.472 115.449 453.346 114.209 451.477 112.38ZM454.248 109.549C455.564 110.836 457.026 111.688 458.634 112.104C460.26 112.501 461.901 112.427 463.555 111.881C465.247 111.334 466.811 110.327 468.248 108.858C469.684 107.39 470.648 105.814 471.139 104.13C471.649 102.464 471.678 100.832 471.227 99.2331C470.776 97.6345 469.892 96.1916 468.576 94.9043C467.261 93.6169 465.799 92.7651 464.191 92.3487C462.583 91.9324 460.942 91.988 459.269 92.5156C457.615 93.0618 456.069 94.069 454.633 95.5373C453.196 97.0055 452.214 98.582 451.685 100.267C451.194 101.951 451.165 103.602 451.597 105.22C452.049 106.818 452.932 108.261 454.248 109.549Z" fill="#F3FFFE"/>
<path d="M494.982 118.822L473.229 136.151L470.387 132.582L492.14 115.254L494.982 118.822Z" fill="#F3FFFE"/>
<path d="M509.446 138.835L506.389 140.957L502.167 134.877L482.38 148.617L479.778 144.87L499.565 131.13L495.32 125.016L498.377 122.894L509.446 138.835Z" fill="#F3FFFE"/>
<path d="M513.226 173.241C513.666 174.693 513.54 176.179 512.846 177.699C512.153 179.22 511.07 180.355 509.596 181.105C508.336 181.746 507.025 181.994 505.664 181.849C504.339 181.715 503.064 181.182 501.841 180.248C500.641 179.302 499.623 178.009 498.788 176.368L493.742 166.454L518.528 153.839L523.338 163.289C524.197 164.977 524.65 166.573 524.696 168.076C524.743 169.579 524.436 170.887 523.776 172.002C523.14 173.104 522.227 173.958 521.038 174.563C519.612 175.289 518.23 175.513 516.891 175.237C515.553 174.96 514.331 174.294 513.226 173.241ZM510.183 163.205L512.743 168.233C513.421 169.564 514.244 170.447 515.214 170.882C516.219 171.328 517.292 171.261 518.433 170.68C519.551 170.111 520.225 169.289 520.456 168.214C520.723 167.15 520.517 165.952 519.84 164.621L517.28 159.593L510.183 163.205ZM501.924 174.324C502.625 175.703 503.509 176.615 504.574 177.061C505.639 177.506 506.766 177.427 507.955 176.822C509.167 176.205 509.918 175.298 510.208 174.103C510.498 172.908 510.292 171.621 509.59 170.242L506.867 164.893L499.128 168.832L501.924 174.324Z" fill="#F3FFFE"/>
<path d="M508.933 200.269C508.033 197.843 507.766 195.395 508.13 192.927C508.53 190.474 509.519 188.272 511.1 186.32C512.715 184.383 514.798 182.942 517.349 181.995C519.9 181.049 522.407 180.788 524.869 181.212C527.34 181.661 529.515 182.69 531.392 184.298C533.303 185.922 534.709 187.948 535.609 190.374C536.518 192.825 536.773 195.277 536.374 197.73C536.009 200.198 535.032 202.396 533.442 204.323C531.852 206.25 529.782 207.687 527.23 208.633C524.679 209.58 522.16 209.845 519.673 209.431C517.211 209.007 515.024 207.982 513.113 206.358C511.236 204.75 509.843 202.72 508.933 200.269ZM512.648 198.891C513.288 200.617 514.246 202.011 515.522 203.074C516.824 204.128 518.339 204.761 520.068 204.973C521.831 205.201 523.676 204.958 525.602 204.244C527.528 203.529 529.072 202.515 530.235 201.202C531.408 199.913 532.131 198.45 532.406 196.812C532.68 195.173 532.497 193.491 531.857 191.765C531.217 190.04 530.258 188.645 528.982 187.582C527.706 186.519 526.198 185.869 524.46 185.632C522.731 185.42 520.903 185.671 518.977 186.385C517.052 187.099 515.49 188.106 514.293 189.403C513.129 190.717 512.398 192.197 512.099 193.845C511.825 195.483 512.007 197.165 512.648 198.891Z" fill="#F3FFFE"/>
<path d="M517.794 229.616C517.213 227.094 517.261 224.633 517.939 222.232C518.65 219.85 519.914 217.793 521.732 216.06C523.582 214.346 525.832 213.184 528.484 212.573C531.135 211.961 533.655 212.024 536.042 212.76C538.435 213.522 540.46 214.821 542.115 216.657C543.802 218.513 544.937 220.702 545.518 223.223C546.105 225.771 546.044 228.235 545.334 230.616C544.656 233.018 543.405 235.072 541.581 236.779C539.757 238.487 537.519 239.646 534.868 240.257C532.216 240.869 529.684 240.809 527.27 240.079C524.883 239.343 522.846 238.047 521.158 236.191C519.503 234.355 518.382 232.163 517.794 229.616ZM521.655 228.726C522.068 230.519 522.84 232.025 523.969 233.243C525.125 234.455 526.546 235.277 528.234 235.709C529.953 236.162 531.814 236.157 533.816 235.695C535.817 235.234 537.479 234.426 538.801 233.273C540.129 232.145 541.034 230.787 541.516 229.197C541.998 227.608 542.032 225.916 541.619 224.122C541.205 222.329 540.434 220.823 539.304 219.605C538.175 218.387 536.763 217.549 535.069 217.091C533.382 216.659 531.537 216.673 529.536 217.135C527.534 217.596 525.856 218.394 524.502 219.527C523.181 220.681 522.266 222.055 521.757 223.651C521.275 225.241 521.241 226.932 521.655 228.726Z" fill="#F3FFFE"/>
<path d="M523.419 262.609L534.586 250.523L522.218 251.911L521.71 247.378L549.347 244.276L549.856 248.809L537.25 250.224L551.061 259.546L551.7 265.232L536.513 254.777L524.084 268.534L523.419 262.609Z" fill="#F3FFFE"/>
<path d="M524.002 280.353C523.974 278.486 524.268 276.8 524.885 275.297C525.529 273.793 526.444 272.605 527.631 271.732C528.818 270.86 530.212 270.412 531.813 270.387L531.888 275.269C530.689 275.394 529.71 275.876 528.949 276.715C528.188 277.58 527.82 278.773 527.843 280.294C527.868 281.867 528.26 283.089 529.021 283.957C529.808 284.826 530.801 285.251 532.002 285.232C532.935 285.218 533.691 284.926 534.269 284.357C534.848 283.814 535.291 283.127 535.598 282.295C535.906 281.49 536.236 280.364 536.587 278.918C537.039 277.097 537.496 275.609 537.959 274.454C538.448 273.326 539.207 272.354 540.235 271.538C541.263 270.722 542.644 270.3 544.377 270.273C545.978 270.249 547.384 270.627 548.597 271.409C549.81 272.19 550.747 273.297 551.41 274.727C552.072 276.158 552.418 277.82 552.447 279.714C552.489 282.408 551.843 284.619 550.509 286.347C549.202 288.101 547.376 289.09 545.032 289.313L544.954 284.272C545.966 284.176 546.826 283.682 547.532 282.791C548.239 281.9 548.581 280.734 548.559 279.293C548.539 277.986 548.189 276.925 547.509 276.108C546.829 275.291 545.863 274.893 544.609 274.912C543.755 274.925 543.053 275.19 542.5 275.705C541.975 276.247 541.558 276.92 541.251 277.725C540.943 278.531 540.613 279.63 540.261 281.022C539.783 282.871 539.299 284.372 538.81 285.527C538.321 286.709 537.55 287.708 536.495 288.524C535.467 289.367 534.073 289.802 532.313 289.83C530.899 289.851 529.559 289.485 528.294 288.731C527.029 288.004 525.998 286.912 525.202 285.457C524.433 284.028 524.033 282.327 524.002 280.353Z" fill="#F3FFFE"/>
</svg>
